<svg width="100" height="100" viewBox="0 0 100 100" fill="none" xmlns="http://www.w3.org/2000/svg">
<g clip-path="url(#clip0_11_2)">
<mask id="mask0_11_2" style="mask-type:luminance" maskUnits="userSpaceOnUse" x="0" y="0" width="100" height="100">
<path d="M0.075119 0.328026H99.9274V99.667H0.075119V0.328026Z" fill="white"/>
</mask>
<g mask="url(#mask0_11_2)">
<mask id="mask1_11_2" style="mask-type:luminance" maskUnits="userSpaceOnUse" x="0" y="0" width="100" height="100">
<path d="M97.0578 66.5365C98.7906 61.4433 99.9274 55.654 99.9274 49.97C99.9274 44.2884 98.9533 38.8196 97.2206 33.779C97.1655 33.6739 97.1655 33.5662 97.1129 33.4585C90.1843 14.5333 71.89 0.595955 51.0091 0.328026H0.075119V99.667H50.9716C71.9977 99.399 90.292 85.6746 97.0578 66.5365Z" fill="white"/>
</mask>
<g mask="url(#mask1_11_2)">
<path d="M0.075119 99.667V0.328026H99.9274V99.667H0.075119Z" fill="white"/>
</g>
</g>
<mask id="mask2_11_2" style="mask-type:luminance" maskUnits="userSpaceOnUse" x="11" y="17" width="66" height="67">
<path d="M11.9641 17.1424H76.2821V83.0078H11.9641V17.1424Z" fill="white"/>
</mask>
<g mask="url(#mask2_11_2)">
<path d="M47.0828 83.0078C59.1897 83.0078 68.9178 78.6584 75.2454 70.3976L76.2695 69.0455L60.8699 55.3035L59.663 56.8384C56.3001 61.1153 52.6042 63.126 48.107 63.126C40.7552 63.126 36.0001 58.0078 36.0001 50.0751C36.0001 42.1449 40.7552 37.0267 48.107 37.0267C52.6417 37.0267 56.3001 39.0375 59.663 43.3143L60.8699 44.8493L76.2695 31.1048L75.2454 29.7526C68.8802 21.4919 59.1521 17.1424 47.0828 17.1424C26.7829 17.1424 12.0793 30.9971 12.0793 50.0751C12.0793 69.1556 26.7829 83.0078 47.0828 83.0078Z" fill="#174ABB"/>
</g>
</g>
<defs>
<clipPath id="clip0_11_2">
<rect width="100" height="100" fill="white"/>
</clipPath>
</defs>
</svg>
